<svg width="24" height="24" viewBox="0 0 24 24" fill="none" xmlns="http://www.w3.org/2000/svg">
<path d="M11.5951 12.4037H5.80565C5.69083 12.4037 5.59458 12.3648 5.5169 12.2869C5.43923 12.209 5.40039 12.1125 5.40039 11.9974C5.40039 11.8823 5.43923 11.7862 5.5169 11.709C5.59458 11.6318 5.69083 11.5932 5.80565 11.5932H11.5951V5.8037C11.5951 5.68888 11.6341 5.59263 11.7119 5.51495C11.7898 5.43728 11.8863 5.39844 12.0014 5.39844C12.1165 5.39844 12.2127 5.43728 12.2899 5.51495C12.3671 5.59263 12.4057 5.68888 12.4057 5.8037V11.5932H18.1951C18.31 11.5932 18.4062 11.6321 18.4839 11.71C18.5616 11.7878 18.6004 11.8843 18.6004 11.9995C18.6004 12.1146 18.5616 12.2107 18.4839 12.2879C18.4062 12.3651 18.31 12.4037 18.1951 12.4037H12.4057V18.1932C12.4057 18.308 12.3667 18.4042 12.2889 18.4819C12.211 18.5596 12.1145 18.5984 11.9994 18.5984C11.8843 18.5984 11.7881 18.5596 11.7109 18.4819C11.6337 18.4042 11.5951 18.308 11.5951 18.1932V12.4037Z" fill="#F1F1F5"/>
</svg>
