<svg width="24" height="24" viewBox="0 0 24 24" fill="none" xmlns="http://www.w3.org/2000/svg">
<path d="M8.03094 9.23564L11.227 3.99724C11.3206 3.84339 11.4352 3.73377 11.5708 3.66839C11.7064 3.603 11.8495 3.57031 12.0001 3.57031C12.1507 3.57031 12.2939 3.603 12.4294 3.66839C12.565 3.73377 12.6796 3.84339 12.7732 3.99724L15.9693 9.23564C16.0629 9.38627 16.1097 9.54445 16.1097 9.71016C16.1097 9.87586 16.0712 10.0273 15.9943 10.1645C15.9174 10.3016 15.8116 10.4113 15.677 10.4933C15.5424 10.5754 15.3853 10.6164 15.2058 10.6164H8.79439C8.61417 10.6164 8.45648 10.575 8.32132 10.4921C8.18615 10.4093 8.08102 10.3 8.00594 10.1645C7.92901 10.0294 7.89054 9.87925 7.89054 9.71411C7.89054 9.54898 7.93734 9.38949 8.03094 9.23564ZM17.5001 21.6164C16.3527 21.6164 15.3799 21.2174 14.5819 20.4193C13.7838 19.6212 13.3848 18.6485 13.3848 17.501C13.3848 16.3536 13.7838 15.3809 14.5819 14.5828C15.3799 13.7847 16.3527 13.3857 17.5001 13.3857C18.6475 13.3857 19.6203 13.7847 20.4184 14.5828C21.2164 15.3809 21.6155 16.3536 21.6155 17.501C21.6155 18.6485 21.2164 19.6212 20.4184 20.4193C19.6203 21.2174 18.6475 21.6164 17.5001 21.6164ZM3.38477 20.2122V14.7873C3.38477 14.5311 3.47142 14.3168 3.64472 14.1443C3.818 13.9719 4.03273 13.8857 4.28892 13.8857H9.71389C9.97007 13.8857 10.1844 13.9723 10.3568 14.1456C10.5292 14.3189 10.6155 14.5337 10.6155 14.7898V20.2148C10.6155 20.471 10.5288 20.6853 10.3555 20.8577C10.1822 21.0302 9.9675 21.1164 9.71132 21.1164H4.28634C4.03016 21.1164 3.81585 21.0297 3.64342 20.8564C3.47098 20.6832 3.38477 20.4684 3.38477 20.2122ZM17.4998 20.1164C18.2321 20.1164 18.8511 19.8636 19.3568 19.358C19.8626 18.8525 20.1155 18.2335 20.1155 17.5013C20.1155 16.7691 19.8627 16.1501 19.3571 15.6443C18.8515 15.1385 18.2326 14.8856 17.5004 14.8856C16.7682 14.8856 16.1492 15.1384 15.6434 15.644C15.1376 16.1496 14.8847 16.7685 14.8847 17.5008C14.8847 18.233 15.1375 18.852 15.6431 19.3578C16.1487 19.8635 16.7676 20.1164 17.4998 20.1164ZM4.88472 19.6164H9.11552V15.3856H4.88472V19.6164ZM9.83857 9.11644H14.1617L12.0001 5.63949L9.83857 9.11644Z" fill="#9FA6B2"/>
</svg>
