<svg width="24" height="24" viewBox="0 0 24 24" fill="none" xmlns="http://www.w3.org/2000/svg">
<path d="M11.9993 13.2287L6.08064 19.1473C5.91911 19.3088 5.71607 19.3915 5.47152 19.3952C5.22698 19.399 5.02021 19.3163 4.8512 19.1473C4.68217 18.9783 4.59766 18.7734 4.59766 18.5326C4.59766 18.2918 4.68217 18.0869 4.8512 17.9179L10.7698 11.9993L4.8512 6.08063C4.68966 5.91911 4.60702 5.71607 4.60329 5.47152C4.59953 5.22699 4.68217 5.02021 4.8512 4.8512C5.02021 4.68217 5.22512 4.59766 5.46592 4.59766C5.70672 4.59766 5.91162 4.68217 6.08064 4.8512L11.9993 10.7698L17.9179 4.8512C18.0794 4.68966 18.2824 4.60702 18.527 4.60329C18.7715 4.59953 18.9783 4.68217 19.1473 4.8512C19.3163 5.02021 19.4008 5.22512 19.4008 5.46592C19.4008 5.70672 19.3163 5.91162 19.1473 6.08063L13.2287 11.9993L19.1473 17.9179C19.3088 18.0794 19.3915 18.2824 19.3952 18.527C19.399 18.7715 19.3163 18.9783 19.1473 19.1473C18.9783 19.3163 18.7734 19.4008 18.5326 19.4008C18.2918 19.4008 18.0869 19.3163 17.9179 19.1473L11.9993 13.2287Z" fill="#F1F1F5"/>
</svg>
