<svg width="24" height="24" viewBox="0 0 24 24" fill="none" xmlns="http://www.w3.org/2000/svg">
<path d="M12.4802 10.4588L15.6313 13.6099C15.6748 13.6534 15.709 13.7019 15.734 13.7555C15.759 13.8092 15.7715 13.8666 15.7715 13.9279C15.7715 14.0504 15.7301 14.1569 15.6472 14.2472C15.5643 14.3376 15.4551 14.3828 15.3196 14.3828L8.68116 14.3828C8.54559 14.3828 8.43638 14.3372 8.35353 14.2459C8.27067 14.1547 8.22924 14.0482 8.22924 13.9265C8.22924 13.8961 8.27603 13.7905 8.36963 13.6097L11.5206 10.4588C11.593 10.3864 11.6679 10.3335 11.7452 10.3002C11.8225 10.2668 11.9076 10.2502 12.0004 10.2502C12.0931 10.2502 12.1782 10.2668 12.2555 10.3002C12.3329 10.3335 12.4077 10.3864 12.4802 10.4588Z" fill="#F1F1F5"/>
</svg>
