<svg width="79" height="74" viewBox="0 0 79 74" fill="none" xmlns="http://www.w3.org/2000/svg">
<path fill-rule="evenodd" clip-rule="evenodd" d="M21.9004 0C20.7958 0 19.9004 0.895432 19.9004 2V24.3969C19.9004 25.5015 20.7958 26.3969 21.9004 26.3969H50.7001L57.4658 31.9435C58.1185 32.4787 59.0997 32.0143 59.0998 31.1702L59.1001 24.4331C59.1003 24.4211 59.1004 24.409 59.1004 24.3969V2C59.1004 0.895431 58.205 0 57.1004 0H21.9004Z" fill="#6E6E82"/>
<path fill-rule="evenodd" clip-rule="evenodd" d="M27.7386 11.4766C28.2909 11.4766 28.7386 11.9243 28.7386 12.4766V13.0259C28.7386 14.2427 29.5887 15.6308 31.5779 16.8003C33.5294 17.9477 36.3266 18.707 39.4994 18.707C42.6721 18.707 45.4693 17.9477 47.4208 16.8003C49.41 15.6308 50.2601 14.2427 50.2601 13.0259V12.4766C50.2601 11.9243 50.7079 11.4766 51.2601 11.4766H52.3346C52.8869 11.4766 53.3346 11.9243 53.3346 12.4766V13.0259C53.3346 15.8024 51.4318 18.0296 48.97 19.477C46.4704 20.9466 43.1186 21.8058 39.4994 21.8058C35.8801 21.8058 32.5283 20.9466 30.0288 19.477C27.5669 18.0296 25.6641 15.8024 25.6641 13.0259V12.4766C25.6641 11.9243 26.1118 11.4766 26.6641 11.4766H27.7386Z" fill="#1C1C22"/>
<path d="M1.83008 70V57.2734H3.41211V68.5938H9.31836V70H1.83008ZM15.1367 70.1934C12.5352 70.2021 10.7773 68.2334 10.7773 65.2715C10.7773 62.292 12.5352 60.332 15.1367 60.332C17.7295 60.332 19.4697 62.292 19.4609 65.2715C19.4697 68.2334 17.7295 70.2021 15.1367 70.1934ZM12.2891 65.2715C12.2979 67.1787 13.1943 68.8574 15.1367 68.8574C17.0615 68.8574 17.9492 67.1787 17.9492 65.2715C17.9492 63.373 17.0615 61.668 15.1367 61.668C13.1943 61.668 12.2979 63.373 12.2891 65.2715ZM20.9902 67.293C20.9902 65.1045 22.9238 64.6035 24.5762 64.4805C25.1914 64.4365 26.7295 64.3486 27.1602 64.3398V63.5664C27.1602 62.3535 26.4395 61.6504 24.998 61.6504C23.7939 61.6504 23.0645 62.2041 22.8535 62.9336H21.2715C21.4648 61.3955 22.959 60.332 25.0684 60.332C26.3164 60.332 28.6631 60.7012 28.6543 63.707V70H27.1602V68.6992H27.0898C26.7734 69.3408 25.9033 70.2197 24.2422 70.2285C22.4316 70.2197 20.9902 69.1562 20.9902 67.293ZM22.502 67.3633C22.5107 68.374 23.3457 68.8838 24.5059 68.875C26.2109 68.8838 27.1602 67.7412 27.1602 66.5371V65.5791C26.7119 65.6055 25.209 65.7197 24.752 65.7461C23.3809 65.834 22.5107 66.3174 22.502 67.3633ZM34.6836 70.1934C32.3018 70.2021 30.623 68.2861 30.623 65.2539C30.623 62.2305 32.3018 60.332 34.7012 60.332C36.5557 60.332 37.1357 61.457 37.4609 61.9668H37.5664V57.2734H39.0957V70H37.6191V68.541H37.4609C37.127 69.0684 36.5029 70.2021 34.6836 70.1934ZM32.1523 65.2188C32.1523 67.249 33.084 68.8398 34.8945 68.8398C36.6436 68.8398 37.6104 67.3633 37.6191 65.2188C37.6104 63.1006 36.6699 61.6855 34.8945 61.6855C33.0576 61.6855 32.1523 63.2236 32.1523 65.2188ZM41.7148 70V60.4551H43.2266V70H41.7148ZM41.416 57.8711C41.4072 57.3086 41.8906 56.8604 42.4707 56.8691C43.0508 56.8604 43.5342 57.3086 43.543 57.8711C43.5342 58.4248 43.0508 58.873 42.4707 58.873C41.8906 58.873 41.4072 58.4248 41.416 57.8711ZM47.1465 64.2695V70H45.6348V60.4551H47.0938V61.9492H47.2168C47.665 60.9736 48.5615 60.332 50.0117 60.332C51.9453 60.332 53.2373 61.5098 53.2285 63.9355V70H51.7168V64.041C51.7168 62.5645 50.9082 61.6855 49.5547 61.6855C48.166 61.6855 47.1465 62.6172 47.1465 64.2695ZM59.5215 73.7793C57.21 73.7793 55.6455 72.7686 55.4785 71.002H57.0605C57.2627 71.9775 58.168 72.4609 59.5215 72.4609C61.1562 72.4609 62.1582 71.749 62.1582 70.1758V68.2422H62.0352C61.71 68.7695 61.1035 69.8506 59.2578 69.8594C56.9375 69.8506 55.1973 68.1016 55.1973 65.0957C55.1973 62.1602 56.876 60.332 59.2754 60.332C61.1299 60.332 61.7275 61.457 62.0703 61.9668H62.1934V60.4551H63.6699V70.2637C63.6611 72.7246 61.8506 73.7793 59.5215 73.7793ZM56.7266 65.1484C56.7266 67.126 57.6582 68.5059 59.4688 68.5059C61.2178 68.5059 62.1846 67.249 62.1934 65.1484C62.1846 63.1006 61.2441 61.6855 59.4688 61.6855C57.6318 61.6855 56.7266 63.2236 56.7266 65.1484ZM67.1504 70.1055C66.5352 70.0967 66.0078 69.5869 66.0254 68.9629C66.0078 68.3477 66.5352 67.8379 67.1504 67.8379C67.7744 67.8379 68.2842 68.3477 68.2754 68.9629C68.2842 69.5869 67.7744 70.0967 67.1504 70.1055ZM71.7207 70.1055C71.1055 70.0967 70.5781 69.5869 70.5957 68.9629C70.5781 68.3477 71.1055 67.8379 71.7207 67.8379C72.3447 67.8379 72.8545 68.3477 72.8457 68.9629C72.8545 69.5869 72.3447 70.0967 71.7207 70.1055ZM76.291 70.1055C75.6758 70.0967 75.1484 69.5869 75.166 68.9629C75.1484 68.3477 75.6758 67.8379 76.291 67.8379C76.915 67.8379 77.4248 68.3477 77.416 68.9629C77.4248 69.5869 76.915 70.0967 76.291 70.1055Z" fill="#6E6E82"/>
</svg>
