<svg width="24" height="24" viewBox="0 0 24 24" fill="none" xmlns="http://www.w3.org/2000/svg">
<path d="M4.25 17.6364C4.0375 17.6364 3.85938 17.5645 3.71563 17.4207C3.57188 17.2768 3.5 17.0986 3.5 16.8861C3.5 16.6735 3.57188 16.4954 3.71563 16.3518C3.85938 16.2082 4.0375 16.1364 4.25 16.1364H19.75C19.9625 16.1364 20.1406 16.2083 20.2843 16.3521C20.4281 16.4959 20.5 16.6741 20.5 16.8867C20.5 17.0993 20.4281 17.2774 20.2843 17.421C20.1406 17.5646 19.9625 17.6364 19.75 17.6364H4.25ZM4.25 12.7518C4.0375 12.7518 3.85938 12.6799 3.71563 12.5361C3.57188 12.3922 3.5 12.214 3.5 12.0015C3.5 11.7889 3.57188 11.6108 3.71563 11.4672C3.85938 11.3236 4.0375 11.2518 4.25 11.2518H19.75C19.9625 11.2518 20.1406 11.3237 20.2843 11.4675C20.4281 11.6113 20.5 11.7895 20.5 12.0021C20.5 12.2147 20.4281 12.3928 20.2843 12.5364C20.1406 12.68 19.9625 12.7518 19.75 12.7518H4.25ZM4.25 7.86716C4.0375 7.86716 3.85938 7.79525 3.71563 7.65144C3.57188 7.50764 3.5 7.32944 3.5 7.11684C3.5 6.90425 3.57188 6.72617 3.71563 6.58259C3.85938 6.43899 4.0375 6.36719 4.25 6.36719H19.75C19.9625 6.36719 20.1406 6.4391 20.2843 6.58291C20.4281 6.72673 20.5 6.90493 20.5 7.11751C20.5 7.33011 20.4281 7.5082 20.2843 7.65179C20.1406 7.79537 19.9625 7.86716 19.75 7.86716H4.25Z" fill="#9FA6B2"/>
</svg>
