<svg width="24" height="24" viewBox="0 0 24 24" fill="none" xmlns="http://www.w3.org/2000/svg">
<path d="M5.11627 20.5018C4.61915 20.5018 4.19359 20.3248 3.83959 19.9707C3.48559 19.6167 3.30859 19.1912 3.30859 18.6941V5.30951C3.30859 4.8124 3.48559 4.38684 3.83959 4.03284C4.19359 3.67882 4.61915 3.50181 5.11627 3.50181H13.0586C13.2711 3.50181 13.4492 3.57372 13.5929 3.71754C13.7367 3.86135 13.8085 4.03955 13.8085 4.25214C13.8085 4.46474 13.7367 4.64283 13.5929 4.78641C13.4492 4.93 13.2711 5.00179 13.0586 5.00179H5.11627C5.02652 5.00179 4.95279 5.03064 4.89509 5.08834C4.83739 5.14604 4.80854 5.21976 4.80854 5.30951V18.6941C4.80854 18.7838 4.83739 18.8575 4.89509 18.9152C4.95279 18.9729 5.02652 19.0018 5.11627 19.0018H18.5008C18.5906 19.0018 18.6643 18.9729 18.722 18.9152C18.7797 18.8575 18.8085 18.7838 18.8085 18.6941V10.7518C18.8085 10.5393 18.8805 10.3612 19.0243 10.2174C19.1681 10.0737 19.3463 10.0018 19.5589 10.0018C19.7715 10.0018 19.9495 10.0737 20.0931 10.2174C20.2367 10.3612 20.3085 10.5393 20.3085 10.7518V18.6941C20.3085 19.1912 20.1315 19.6167 19.7775 19.9707C19.4235 20.3248 18.9979 20.5018 18.5008 20.5018H5.11627ZM17.1932 6.61714H15.9432C15.7307 6.61714 15.5526 6.54524 15.4088 6.40144C15.2651 6.25762 15.1932 6.07942 15.1932 5.86684C15.1932 5.65424 15.2651 5.47615 15.4088 5.33256C15.5526 5.18898 15.7307 5.11719 15.9432 5.11719H17.1932V3.86716C17.1932 3.65466 17.2651 3.47654 17.4089 3.33279C17.5527 3.18905 17.7309 3.11719 17.9435 3.11719C18.1561 3.11719 18.3342 3.18905 18.4778 3.33279C18.6214 3.47654 18.6931 3.65466 18.6931 3.86716V5.11719H19.9432C20.1557 5.11719 20.3338 5.18909 20.4775 5.33289C20.6213 5.4767 20.6931 5.6549 20.6931 5.86749C20.6931 6.08009 20.6213 6.25818 20.4775 6.40176C20.3338 6.54535 20.1557 6.61714 19.9432 6.61714H18.6931V7.86716C18.6931 8.07966 18.6212 8.25779 18.4774 8.40154C18.3336 8.54527 18.1554 8.61714 17.9428 8.61714C17.7302 8.61714 17.5522 8.54527 17.4086 8.40154C17.265 8.25779 17.1932 8.07966 17.1932 7.86716V6.61714ZM11.0393 16.021L9.40087 13.921C9.30729 13.8069 9.18838 13.7499 9.04414 13.7499C8.89991 13.7499 8.781 13.8101 8.68742 13.9307L7.11052 16.0287C6.99 16.1825 6.97414 16.3415 7.06292 16.5056C7.1517 16.6697 7.28488 16.7518 7.46244 16.7518H16.2316C16.4091 16.7518 16.5423 16.6697 16.6311 16.5056C16.7199 16.3415 16.7072 16.1825 16.5931 16.0287L14.2085 12.8345C14.1149 12.714 13.9944 12.6537 13.847 12.6537C13.6996 12.6537 13.5788 12.7148 13.4848 12.837L11.0393 16.021Z" fill="#6E6E82"/>
</svg>
