<svg width="133" height="96" viewBox="0 0 133 96" fill="none" xmlns="http://www.w3.org/2000/svg">
<path fill-rule="evenodd" clip-rule="evenodd" d="M41 25C39.8954 25 39 25.8954 39 27V60.9456C39 62.0502 39.8954 62.9456 41 62.9456H82.2138L92.3559 71.4643C93.0065 72.0107 93.9991 71.5482 93.9991 70.6986L93.9995 60.9902C93.9998 60.9754 94 60.9605 94 60.9456V27C94 25.8954 93.1046 25 92 25H41Z" fill="#6E6E82"/>
<path fill-rule="evenodd" clip-rule="evenodd" d="M50.4014 41.5C50.9537 41.5 51.4014 41.9477 51.4014 42.5V43.7272C51.4014 45.4764 52.5942 47.4717 55.3851 49.1529C58.1232 50.8022 62.0478 51.8938 66.4994 51.8938C70.951 51.8938 74.8757 50.8022 77.6137 49.1529C80.4047 47.4717 81.5974 45.4764 81.5974 43.7272V42.5C81.5974 41.9477 82.0452 41.5 82.5974 41.5H84.9112C85.4635 41.5 85.9112 41.9477 85.9112 42.5V43.7272C85.9112 47.7184 83.2413 50.92 79.7872 53.0006C76.2802 55.1131 71.5775 56.3483 66.4994 56.3483C61.4214 56.3483 56.7186 55.1131 53.2116 53.0006C49.7575 50.92 47.0876 47.7184 47.0876 43.7272V42.5C47.0876 41.9477 47.5354 41.5 48.0876 41.5H50.4014Z" fill="#1C1C22"/>
</svg>
