<svg width="28" height="26" viewBox="0 0 28 26" fill="none" xmlns="http://www.w3.org/2000/svg">
<path d="M14.0013 21.7606L7.25857 25.8108C7.00749 25.9569 6.75586 26.0183 6.50368 25.9951C6.25147 25.9718 6.02316 25.8871 5.81873 25.7411C5.61433 25.595 5.45658 25.4041 5.34548 25.1684C5.23435 24.9327 5.21658 24.6721 5.29214 24.3866L7.08196 16.761L1.12916 11.6285C0.906971 11.436 0.765326 11.213 0.704231 10.9596C0.643136 10.7062 0.659241 10.46 0.752544 10.2209C0.845876 9.98191 0.980313 9.78659 1.15586 9.63499C1.3314 9.48339 1.57137 9.38436 1.87578 9.33789L9.73174 8.65401L12.7814 1.45328C12.8925 1.18549 13.0608 0.987412 13.2864 0.859032C13.5119 0.73068 13.7502 0.666504 14.0013 0.666504C14.2524 0.666504 14.4907 0.73068 14.7162 0.859032C14.9418 0.987412 15.1101 1.18549 15.2212 1.45328L18.2709 8.65401L26.1268 9.33789C26.4312 9.38436 26.6712 9.48339 26.8467 9.63499C27.0223 9.78659 27.1567 9.98191 27.2501 10.2209C27.3434 10.46 27.3595 10.7062 27.2984 10.9596C27.2373 11.213 27.0956 11.436 26.8734 11.6285L20.9206 16.761L22.7105 24.3866C22.786 24.6721 22.7683 24.9327 22.6571 25.1684C22.546 25.4041 22.3883 25.595 22.1839 25.7411C21.9794 25.8871 21.7511 25.9718 21.4989 25.9951C21.2467 26.0183 20.9951 25.9569 20.744 25.8108L14.0013 21.7606Z" fill="#6E6E82"/>
</svg>
