<svg width="24" height="24" viewBox="0 0 24 24" fill="none" xmlns="http://www.w3.org/2000/svg">
<path d="M15.7736 12.9749L14.6506 11.8518C14.8211 10.9621 14.5871 10.2031 13.9486 9.57492C13.3102 8.94672 12.5441 8.70569 11.6506 8.85184L10.5275 7.72879C10.7596 7.62109 10.9983 7.54353 11.2438 7.49609C11.4894 7.44866 11.7416 7.42494 12.0006 7.42494C13.1352 7.42494 14.0983 7.82078 14.89 8.61244C15.6816 9.40411 16.0775 10.3672 16.0775 11.5018C16.0775 11.7608 16.0553 12.0131 16.0111 12.2586C15.9669 12.5041 15.8877 12.7428 15.7736 12.9749ZM18.9544 16.0864L17.8506 15.0518C18.4839 14.5685 19.0506 14.031 19.5506 13.4393C20.0506 12.8477 20.4672 12.2018 20.8006 11.5018C19.9672 9.81851 18.7631 8.48101 17.1881 7.48934C15.6131 6.49768 13.8839 6.00184 12.0006 6.00184C11.5172 6.00184 11.0464 6.03518 10.5881 6.10184C10.1297 6.16851 9.66723 6.26851 9.20056 6.40184L8.03521 5.23649C8.6711 4.98521 9.31949 4.79995 9.98039 4.68072C10.6413 4.56149 11.3147 4.50187 12.0006 4.50187C14.1493 4.50187 16.123 5.0602 17.9217 6.17687C19.7204 7.29353 21.1037 8.80443 22.0717 10.7095C22.1384 10.8365 22.1867 10.9643 22.2169 11.0932C22.247 11.222 22.2621 11.3583 22.2621 11.5018C22.2621 11.6454 22.2496 11.7816 22.2246 11.9105C22.1996 12.0393 22.1537 12.1672 22.0871 12.2941C21.7332 13.0467 21.289 13.7416 20.7544 14.3787C20.2198 15.0159 19.6198 15.5852 18.9544 16.0864ZM12.0006 18.5018C9.89545 18.5018 7.96597 17.9393 6.21214 16.8143C4.45829 15.6893 3.06405 14.2076 2.02944 12.3691C1.9461 12.2422 1.88521 12.1044 1.84676 11.9557C1.8083 11.807 1.78906 11.6557 1.78906 11.5018C1.78906 11.348 1.80573 11.1993 1.83906 11.0557C1.8724 10.9121 1.93073 10.7717 2.01406 10.6345C2.38586 9.95506 2.80702 9.30794 3.27754 8.69319C3.74805 8.07844 4.28908 7.52748 4.90061 7.04032L2.64291 4.76722C2.50445 4.6185 2.43618 4.4419 2.43811 4.23742C2.44003 4.03293 2.51342 3.85826 2.65829 3.71339C2.80315 3.56853 2.9788 3.49609 3.18521 3.49609C3.39161 3.49609 3.56725 3.56853 3.71211 3.71339L20.289 20.2903C20.4275 20.4287 20.5009 20.6002 20.5092 20.8047C20.5175 21.0092 20.4441 21.189 20.289 21.3441C20.1441 21.489 19.9685 21.5614 19.7621 21.5614C19.5557 21.5614 19.3801 21.489 19.2352 21.3441L15.716 17.8556C15.1262 18.0839 14.5201 18.2486 13.8977 18.3499C13.2753 18.4512 12.6429 18.5018 12.0006 18.5018ZM5.95444 8.09412C5.36854 8.54668 4.84193 9.05855 4.37461 9.62972C3.9073 10.2009 3.51595 10.8249 3.20056 11.5018C4.0339 13.1852 5.23806 14.5227 6.81306 15.5143C8.38806 16.506 10.1172 17.0018 12.0006 17.0018C12.4301 17.0018 12.8528 16.973 13.2689 16.9153C13.6849 16.8576 14.098 16.7685 14.5083 16.648L13.2429 15.3518C13.0403 15.4403 12.8381 15.5002 12.6361 15.5316C12.4342 15.563 12.2224 15.5787 12.0006 15.5787C10.866 15.5787 9.90283 15.1829 9.11116 14.3912C8.3195 13.5996 7.92366 12.6364 7.92366 11.5018C7.92366 11.28 7.94097 11.0682 7.97559 10.8663C8.0102 10.6643 8.06854 10.4621 8.15059 10.2595L5.95444 8.09412Z" fill="#9FA6B2"/>
</svg>
